<svg width="30" height="34" viewBox="0 0 30 34" fill="none" xmlns="http://www.w3.org/2000/svg">
<path d="M19 11.3332C19 14.0318 17.0952 15.9998 15 15.9998C12.9048 15.9998 11 14.0318 11 11.3332C11 8.63455 12.9048 6.6665 15 6.6665C17.0952 6.6665 19 8.63455 19 11.3332Z" stroke="#33363F" stroke-width="2" stroke-linecap="round"/>
<path d="M18.8934 11.0789C19.2798 10.3206 19.8947 9.80674 20.57 9.60167C21.2392 9.39846 21.9567 9.50002 22.5775 9.90618C23.2049 10.3167 23.695 11.0169 23.8991 11.8801C24.1032 12.7437 23.9938 13.6608 23.6066 14.4211C23.2202 15.1794 22.6053 15.6933 21.93 15.8983C21.2608 16.1015 20.5433 16 19.9225 15.5938C19.2951 15.1833 18.805 14.4831 18.6009 13.6199C18.3968 12.7563 18.5062 11.8392 18.8934 11.0789L18.8934 11.0789Z" stroke="#33363F" stroke-width="2"/>
<path d="M6.39345 11.0789C6.77975 10.3206 7.39471 9.80674 8.07 9.60167C8.73916 9.39846 9.45675 9.50002 10.0775 9.90618C10.7049 10.3167 11.195 11.0169 11.3991 11.8801C11.6032 12.7437 11.4938 13.6608 11.1066 14.4211C10.7202 15.1794 10.1053 15.6933 9.43 15.8983C8.76084 16.1015 8.04325 16 7.42253 15.5938C6.79511 15.1833 6.30503 14.4831 6.10095 13.6199C5.89678 12.7563 6.00617 11.8392 6.39345 11.0789L6.39345 11.0789Z" stroke="#33363F" stroke-width="2"/>
<path d="M21.1021 25.5002L20.1175 25.6751L20.2641 26.5002H21.1021V25.5002ZM26.0318 24.4061L26.9993 24.1532V24.1532L26.0318 24.4061ZM18.4761 20.8401L17.8237 20.0822L16.8519 20.9187L17.8999 21.6574L18.4761 20.8401ZM25.1337 24.5002H21.1021V26.5002H25.1337V24.5002ZM25.0644 24.6591C25.0609 24.6459 25.0585 24.6206 25.0656 24.5904C25.0723 24.562 25.0848 24.5406 25.0964 24.5268C25.1191 24.4997 25.1384 24.5002 25.1337 24.5002V26.5002C26.2953 26.5002 27.3376 25.4467 26.9993 24.1532L25.0644 24.6591ZM21.2501 20.8335C22.4585 20.8335 23.2777 21.376 23.877 22.1263C24.5009 22.9074 24.8652 23.8976 25.0644 24.6591L26.9993 24.1532C26.7678 23.2678 26.3131 21.9716 25.4397 20.8781C24.5416 19.7538 23.1853 18.8335 21.2501 18.8335V20.8335ZM19.1285 21.598C19.6546 21.1451 20.3312 20.8335 21.2501 20.8335V18.8335C19.819 18.8335 18.6866 19.3393 17.8237 20.0822L19.1285 21.598ZM17.8999 21.6574C19.2998 22.6442 19.8863 24.3739 20.1175 25.6751L22.0867 25.3252C21.8277 23.8678 21.1118 21.4745 19.0522 20.0227L17.8999 21.6574Z" fill="#33363F"/>
<path d="M11.524 20.8401L12.1001 21.6574L13.1482 20.9187L12.1764 20.0822L11.524 20.8401ZM3.96826 24.4061L4.93573 24.6591H4.93573L3.96826 24.4061ZM8.89799 25.5002V26.5002H9.73595L9.88257 25.6751L8.89799 25.5002ZM8.75007 20.8335C9.66889 20.8335 10.3455 21.145 10.8716 21.5979L12.1764 20.0822C11.3135 19.3393 10.1811 18.8335 8.75007 18.8335V20.8335ZM4.93573 24.6591C5.13489 23.8976 5.49924 22.9074 6.12316 22.1263C6.72246 21.376 7.54164 20.8335 8.75007 20.8335V18.8335C6.81487 18.8335 5.45848 19.7538 4.56046 20.8781C3.68706 21.9716 3.23232 23.2678 3.0008 24.1531L4.93573 24.6591ZM4.86641 24.5002C4.86171 24.5002 4.88099 24.4997 4.90374 24.5268C4.91535 24.5406 4.92778 24.562 4.93448 24.5904C4.94161 24.6206 4.93918 24.6459 4.93573 24.6591L3.0008 24.1531C2.66251 25.4467 3.70479 26.5002 4.86641 26.5002V24.5002ZM8.89799 24.5002H4.86641V26.5002H8.89799V24.5002ZM9.88257 25.6751C10.1138 24.3739 10.7003 22.6441 12.1001 21.6574L10.9479 20.0227C8.88823 21.4745 8.1724 23.8678 7.91342 25.3252L9.88257 25.6751Z" fill="#33363F"/>
<path d="M15 19.8335C19.7783 19.8335 20.9035 23.9738 21.1684 25.9236C21.2428 26.4708 20.8023 26.9168 20.25 26.9168H9.75C9.19772 26.9168 8.75724 26.4708 8.8316 25.9236C9.09653 23.9738 10.2217 19.8335 15 19.8335Z" stroke="#33363F" stroke-width="2" stroke-linecap="round"/>
</svg>
