<svg width="165" height="70" viewBox="0 0 165 70" fill="none" xmlns="http://www.w3.org/2000/svg">
<path d="M57.4992 1.57L50.6742 26H44.8992L40.3142 8.605L35.5192 26L29.7792 26.035L23.1992 1.57H28.4492L32.7542 20.54L37.7242 1.57H43.1842L47.8742 20.435L52.2142 1.57H57.4992ZM78.7237 15.885C78.7237 16.585 78.677 17.215 78.5837 17.775H64.4087C64.5254 19.175 65.0154 20.2717 65.8787 21.065C66.742 21.8583 67.8037 22.255 69.0637 22.255C70.8837 22.255 72.1787 21.4733 72.9487 19.91H78.2337C77.6737 21.7767 76.6004 23.3167 75.0137 24.53C73.427 25.72 71.4787 26.315 69.1687 26.315C67.302 26.315 65.622 25.9067 64.1287 25.09C62.6587 24.25 61.5037 23.0717 60.6637 21.555C59.847 20.0383 59.4387 18.2883 59.4387 16.305C59.4387 14.2983 59.847 12.5367 60.6637 11.02C61.4804 9.50333 62.6237 8.33667 64.0937 7.52C65.5637 6.70333 67.2554 6.295 69.1687 6.295C71.012 6.295 72.657 6.69167 74.1037 7.485C75.5737 8.27833 76.7054 9.41 77.4987 10.88C78.3154 12.3267 78.7237 13.995 78.7237 15.885ZM73.6487 14.485C73.6254 13.225 73.1704 12.2217 72.2837 11.475C71.397 10.705 70.312 10.32 69.0287 10.32C67.8154 10.32 66.7887 10.6933 65.9487 11.44C65.132 12.1633 64.6304 13.1783 64.4437 14.485H73.6487ZM99.3103 8.92C98.7503 7.89333 97.9803 7.11167 97.0003 6.575C96.0203 6.03833 94.8769 5.77 93.5703 5.77C92.1236 5.77 90.8403 6.09667 89.7203 6.75C88.6003 7.40333 87.7253 8.33667 87.0953 9.55C86.4653 10.7633 86.1503 12.1633 86.1503 13.75C86.1503 15.3833 86.4653 16.8067 87.0953 18.02C87.7486 19.2333 88.6469 20.1667 89.7903 20.82C90.9336 21.4733 92.2636 21.8 93.7803 21.8C95.6469 21.8 97.1753 21.31 98.3653 20.33C99.5553 19.3267 100.337 17.9383 100.71 16.165H92.3103V12.42H105.54V16.69C105.214 18.3933 104.514 19.9683 103.44 21.415C102.367 22.8617 100.979 24.0283 99.2753 24.915C97.5953 25.7783 95.7053 26.21 93.6053 26.21C91.2486 26.21 89.1136 25.685 87.2003 24.635C85.3103 23.5617 83.8169 22.08 82.7203 20.19C81.6469 18.3 81.1103 16.1533 81.1103 13.75C81.1103 11.3467 81.6469 9.2 82.7203 7.31C83.8169 5.39666 85.3103 3.915 87.2003 2.865C89.1136 1.79167 91.2369 1.255 93.5703 1.255C96.3236 1.255 98.7153 1.93167 100.745 3.285C102.775 4.615 104.175 6.49333 104.945 8.92H99.3103ZM29.3594 54C29.2394 54 29.1394 53.9667 29.0594 53.9C28.9927 53.8333 28.9594 53.7067 28.9594 53.52C28.9594 53.44 28.986 53.3467 29.0394 53.24C29.0927 53.1333 29.166 53.0333 29.2594 52.94C29.3527 52.8333 29.4594 52.7467 29.5794 52.68C29.6994 52.6133 29.8194 52.58 29.9394 52.58C30.0194 52.58 30.0927 52.6133 30.1594 52.68C30.226 52.7333 30.2594 52.8067 30.2594 52.9C30.2594 53.0067 30.2327 53.1267 30.1794 53.26C30.126 53.3933 30.0527 53.5133 29.9594 53.62C29.866 53.7267 29.766 53.82 29.6594 53.9C29.5527 53.9667 29.4527 54 29.3594 54ZM31.7617 54C31.6417 54 31.5417 53.9667 31.4617 53.9C31.3951 53.8333 31.3617 53.7067 31.3617 53.52C31.3617 53.44 31.3884 53.3467 31.4417 53.24C31.4951 53.1333 31.5684 53.0333 31.6617 52.94C31.7551 52.8333 31.8617 52.7467 31.9817 52.68C32.1017 52.6133 32.2217 52.58 32.3417 52.58C32.4217 52.58 32.4951 52.6133 32.5617 52.68C32.6284 52.7333 32.6617 52.8067 32.6617 52.9C32.6617 53.0067 32.6351 53.1267 32.5817 53.26C32.5284 53.3933 32.4551 53.5133 32.3617 53.62C32.2684 53.7267 32.1684 53.82 32.0617 53.9C31.9551 53.9667 31.8551 54 31.7617 54ZM34.1641 54C34.0441 54 33.9441 53.9667 33.8641 53.9C33.7974 53.8333 33.7641 53.7067 33.7641 53.52C33.7641 53.44 33.7907 53.3467 33.8441 53.24C33.8974 53.1333 33.9707 53.0333 34.0641 52.94C34.1574 52.8333 34.2641 52.7467 34.3841 52.68C34.5041 52.6133 34.6241 52.58 34.7441 52.58C34.8241 52.58 34.8974 52.6133 34.9641 52.68C35.0307 52.7333 35.0641 52.8067 35.0641 52.9C35.0641 53.0067 35.0374 53.1267 34.9841 53.26C34.9307 53.3933 34.8574 53.5133 34.7641 53.62C34.6707 53.7267 34.5707 53.82 34.4641 53.9C34.3574 53.9667 34.2574 54 34.1641 54ZM52.0942 41.1C52.5076 41.1 52.8409 41.2467 53.0942 41.54C53.3476 41.82 53.4742 42.1667 53.4742 42.58C53.4742 42.8467 53.4142 43.16 53.2942 43.52C53.1742 43.8667 53.0476 44.1533 52.9142 44.38C52.8609 44.42 52.8009 44.4267 52.7342 44.4C52.6809 44.3733 52.6609 44.3267 52.6742 44.26C52.7542 44.02 52.7876 43.78 52.7742 43.54C52.7609 43.3 52.6942 43.08 52.5742 42.88C52.4542 42.68 52.2676 42.52 52.0142 42.4C51.7742 42.2667 51.4676 42.2 51.0942 42.2C50.5876 42.2 50.1476 42.2933 49.7742 42.48C49.4142 42.6533 49.0809 42.9667 48.7742 43.42C48.4676 43.86 48.1809 44.4533 47.9142 45.2C47.6476 45.9467 47.3742 46.88 47.0942 48C46.6276 49.7867 45.9809 51.1667 45.1542 52.14C45.7542 52.3667 46.3809 52.5733 47.0342 52.76C47.7009 52.9333 48.4342 53.02 49.2342 53.02C49.9009 53.02 50.4076 52.9 50.7542 52.66C51.1009 52.42 51.3876 52.0733 51.6142 51.62C51.6676 51.58 51.7142 51.58 51.7542 51.62C51.8076 51.6467 51.8276 51.7 51.8142 51.78C51.4942 52.5 51.0676 53.0533 50.5342 53.44C50.0009 53.8133 49.2876 54 48.3942 54C47.6076 54 46.8876 53.8867 46.2342 53.66C45.5942 53.42 44.9676 53.1667 44.3542 52.9C43.3809 53.6333 42.1876 54 40.7742 54C40.2409 54 39.8409 53.9067 39.5742 53.72C39.3076 53.5333 39.1742 53.3 39.1742 53.02C39.1742 52.8467 39.2342 52.66 39.3542 52.46C39.4876 52.26 39.6676 52.0733 39.8942 51.9C40.1209 51.7267 40.3876 51.58 40.6942 51.46C41.0142 51.34 41.3676 51.28 41.7542 51.28C42.2476 51.28 42.7276 51.3467 43.1942 51.48C43.6742 51.6 44.1609 51.7533 44.6542 51.94C44.8809 51.5667 45.1009 51.1 45.3142 50.54C45.5276 49.98 45.7409 49.2933 45.9542 48.48C46.2609 47.3333 46.6276 46.3067 47.0542 45.4C47.4809 44.48 47.9542 43.7067 48.4742 43.08C49.0076 42.44 49.5742 41.9533 50.1742 41.62C50.7876 41.2733 51.4276 41.1 52.0942 41.1ZM41.6742 53.48C42.1542 53.48 42.5809 53.4333 42.9542 53.34C43.3409 53.2333 43.6876 53.0333 43.9942 52.74C43.5009 52.5267 43.0009 52.34 42.4942 52.18C41.9876 52.02 41.4476 51.94 40.8742 51.94C40.2609 51.94 39.9542 52.1467 39.9542 52.56C39.9542 52.8267 40.1009 53.0467 40.3942 53.22C40.7009 53.3933 41.1276 53.48 41.6742 53.48ZM56.8103 49.88C56.8103 50.64 55.8036 51.16 53.7903 51.44C53.777 51.5733 53.7636 51.7067 53.7503 51.84C53.7503 51.9733 53.7503 52.1133 53.7503 52.26C53.7503 52.6067 53.8303 52.8733 53.9903 53.06C54.1503 53.2467 54.4036 53.34 54.7503 53.34C55.0036 53.34 55.2636 53.2667 55.5303 53.12C55.797 52.9733 56.0103 52.7867 56.1703 52.56C56.2236 52.5333 56.2636 52.5467 56.2903 52.6C56.317 52.64 56.3236 52.6867 56.3103 52.74C56.0436 53.0867 55.7036 53.3867 55.2903 53.64C54.8903 53.88 54.457 54 53.9903 54C53.5236 54 53.1836 53.8867 52.9703 53.66C52.7703 53.42 52.6703 53.0867 52.6703 52.66C52.6703 52.2467 52.757 51.82 52.9303 51.38C53.1036 50.9267 53.3236 50.5133 53.5903 50.14C53.8703 49.7667 54.1836 49.4667 54.5303 49.24C54.8903 49 55.2503 48.88 55.6103 48.88C55.9703 48.88 56.257 48.9867 56.4703 49.2C56.697 49.4 56.8103 49.6267 56.8103 49.88ZM55.0703 49.4C54.7636 49.4 54.497 49.5467 54.2703 49.84C54.057 50.12 53.9103 50.56 53.8303 51.16C54.4703 51.0933 54.9436 50.9733 55.2503 50.8C55.557 50.6133 55.7103 50.3867 55.7103 50.12C55.7103 49.92 55.6503 49.7533 55.5303 49.62C55.4103 49.4733 55.257 49.4 55.0703 49.4ZM61.2564 48.98C61.3231 49.0067 61.3497 49.0467 61.3364 49.1C61.3231 49.14 61.2631 49.1733 61.1564 49.2C60.9564 49.2 60.7231 49.2067 60.4564 49.22C60.2031 49.2333 59.9297 49.2533 59.6364 49.28C59.3697 49.9333 59.1497 50.5733 58.9764 51.2C58.8031 51.8133 58.7164 52.3133 58.7164 52.7C58.7164 53.1533 58.8897 53.38 59.2364 53.38C59.5831 53.38 59.9697 53.08 60.3964 52.48C60.4364 52.4533 60.4697 52.4533 60.4964 52.48C60.5364 52.5067 60.5497 52.5533 60.5364 52.62C60.3097 52.9933 60.0231 53.32 59.6764 53.6C59.3297 53.8667 58.9897 54 58.6564 54C58.3097 54 58.0497 53.92 57.8764 53.76C57.7164 53.5867 57.6364 53.3533 57.6364 53.06C57.6364 52.6733 57.7297 52.14 57.9164 51.46C58.1031 50.78 58.3431 50.0867 58.6364 49.38C58.2897 49.42 57.9697 49.4733 57.6764 49.54C57.6097 49.5267 57.5897 49.4933 57.6164 49.44C57.6564 49.3867 57.7164 49.3333 57.7964 49.28C57.8897 49.2133 57.9964 49.16 58.1164 49.12C58.2364 49.0667 58.3497 49.04 58.4564 49.04C58.5097 49.04 58.5631 49.04 58.6164 49.04C58.6697 49.04 58.7231 49.0333 58.7764 49.02C58.9497 48.6333 59.1297 48.26 59.3164 47.9C59.5031 47.54 59.6897 47.2133 59.8764 46.92C59.9564 46.8267 60.0631 46.7467 60.1964 46.68C60.3431 46.6 60.4831 46.54 60.6164 46.5C60.7497 46.46 60.8564 46.44 60.9364 46.44C61.0297 46.4267 61.0697 46.4467 61.0564 46.5C60.8297 46.8467 60.6031 47.2333 60.3764 47.66C60.1631 48.0867 59.9564 48.5333 59.7564 49C60.0097 48.9867 60.2631 48.98 60.5164 48.98C60.7831 48.98 61.0297 48.98 61.2564 48.98ZM63.6469 48.88C63.9402 48.88 64.1735 48.92 64.3469 49C64.5335 49.08 64.6269 49.18 64.6269 49.3C64.6269 49.4467 64.5869 49.6133 64.5069 49.8C64.4402 49.9867 64.3735 50.14 64.3069 50.26C64.2802 50.2867 64.2469 50.2933 64.2069 50.28C64.1669 50.2533 64.1469 50.2133 64.1469 50.16C64.1869 50.0667 64.2069 49.9333 64.2069 49.76C64.2069 49.5733 64.1535 49.42 64.0469 49.3C63.9535 49.18 63.8202 49.12 63.6469 49.12C63.4202 49.12 63.2335 49.1933 63.0869 49.34C62.9535 49.4733 62.8869 49.6667 62.8869 49.92C62.8869 50.1333 62.9402 50.34 63.0469 50.54C63.1669 50.7267 63.2935 50.92 63.4269 51.12C63.5735 51.3067 63.7069 51.5133 63.8269 51.74C63.9469 51.9533 64.0069 52.2 64.0069 52.48C64.0069 52.96 63.8135 53.3333 63.4269 53.6C63.0402 53.8667 62.5335 54 61.9069 54C61.4535 54 61.0935 53.9267 60.8269 53.78C60.5735 53.6333 60.4469 53.4733 60.4469 53.3C60.4469 53.2467 60.4669 53.1733 60.5069 53.08C60.5469 52.9867 60.6002 52.8867 60.6669 52.78C60.7335 52.6733 60.8069 52.5667 60.8869 52.46C60.9669 52.3533 61.0535 52.2667 61.1469 52.2C61.1869 52.1733 61.2202 52.18 61.2469 52.22C61.2869 52.26 61.2935 52.3 61.2669 52.34C61.1869 52.42 61.1269 52.5067 61.0869 52.6C61.0469 52.68 61.0269 52.7933 61.0269 52.94C61.0269 53.18 61.1069 53.38 61.2669 53.54C61.4269 53.6867 61.6335 53.76 61.8869 53.76C62.2335 53.76 62.5002 53.6667 62.6869 53.48C62.8869 53.28 62.9869 53.04 62.9869 52.76C62.9869 52.5067 62.9269 52.2733 62.8069 52.06C62.7002 51.8333 62.5802 51.62 62.4469 51.42C62.3135 51.2067 62.1869 50.9933 62.0669 50.78C61.9602 50.5667 61.9069 50.34 61.9069 50.1C61.9069 49.7533 62.0535 49.4667 62.3469 49.24C62.6402 49 63.0735 48.88 63.6469 48.88ZM72.1158 48.98C72.1824 49.0067 72.2091 49.0467 72.1958 49.1C72.1824 49.14 72.1224 49.1733 72.0158 49.2C71.8158 49.2 71.5824 49.2067 71.3158 49.22C71.0624 49.2333 70.7891 49.2533 70.4958 49.28C70.2291 49.9333 70.0091 50.5733 69.8358 51.2C69.6624 51.8133 69.5758 52.3133 69.5758 52.7C69.5758 53.1533 69.7491 53.38 70.0958 53.38C70.4424 53.38 70.8291 53.08 71.2558 52.48C71.2958 52.4533 71.3291 52.4533 71.3558 52.48C71.3958 52.5067 71.4091 52.5533 71.3958 52.62C71.1691 52.9933 70.8824 53.32 70.5358 53.6C70.1891 53.8667 69.8491 54 69.5158 54C69.1691 54 68.9091 53.92 68.7358 53.76C68.5758 53.5867 68.4958 53.3533 68.4958 53.06C68.4958 52.6733 68.5891 52.14 68.7758 51.46C68.9624 50.78 69.2024 50.0867 69.4958 49.38C69.1491 49.42 68.8291 49.4733 68.5358 49.54C68.4691 49.5267 68.4491 49.4933 68.4758 49.44C68.5158 49.3867 68.5758 49.3333 68.6558 49.28C68.7491 49.2133 68.8558 49.16 68.9758 49.12C69.0958 49.0667 69.2091 49.04 69.3158 49.04C69.3691 49.04 69.4224 49.04 69.4758 49.04C69.5291 49.04 69.5824 49.0333 69.6358 49.02C69.8091 48.6333 69.9891 48.26 70.1758 47.9C70.3624 47.54 70.5491 47.2133 70.7358 46.92C70.8158 46.8267 70.9224 46.7467 71.0558 46.68C71.2024 46.6 71.3424 46.54 71.4758 46.5C71.6091 46.46 71.7158 46.44 71.7958 46.44C71.8891 46.4267 71.9291 46.4467 71.9158 46.5C71.6891 46.8467 71.4624 47.2333 71.2358 47.66C71.0224 48.0867 70.8158 48.5333 70.6158 49C70.8691 48.9867 71.1224 48.98 71.3758 48.98C71.6424 48.98 71.8891 48.98 72.1158 48.98ZM74.1263 49.46C74.1263 49.66 74.1063 49.8867 74.0663 50.14C74.0263 50.3933 73.9729 50.6533 73.9062 50.92C74.1729 50.28 74.4663 49.78 74.7863 49.42C75.1063 49.06 75.4529 48.88 75.8263 48.88C76.0263 48.88 76.1796 48.9267 76.2863 49.02C76.3929 49.1133 76.4463 49.2333 76.4463 49.38C76.4463 49.5133 76.3929 49.6867 76.2863 49.9C76.1929 50.1133 76.1129 50.26 76.0463 50.34C76.0196 50.3533 75.9929 50.3533 75.9663 50.34C75.9396 50.3133 75.9263 50.2867 75.9263 50.26C75.9263 50.1667 75.8863 50.0867 75.8063 50.02C75.7396 49.9533 75.6329 49.92 75.4863 49.92C75.0196 49.92 74.5929 50.24 74.2063 50.88C73.8329 51.5067 73.4863 52.4133 73.1663 53.6C73.1529 53.6667 73.1063 53.7267 73.0263 53.78C72.9463 53.82 72.8529 53.86 72.7463 53.9C72.6529 53.9267 72.5529 53.9533 72.4463 53.98C72.3396 53.9933 72.2463 54 72.1663 54C72.0196 54 71.9796 53.92 72.0463 53.76C72.1663 53.48 72.2796 53.18 72.3863 52.86C72.5063 52.5267 72.6129 52.1933 72.7063 51.86C72.7996 51.5267 72.8796 51.2067 72.9463 50.9C73.0129 50.58 73.0663 50.2867 73.1063 50.02C73.1329 49.82 73.1396 49.6667 73.1263 49.56C73.1263 49.4533 73.0729 49.4 72.9663 49.4C72.8329 49.4 72.6929 49.46 72.5463 49.58C72.4129 49.6867 72.2863 49.8267 72.1663 50C72.1129 50.04 72.0596 50.0467 72.0063 50.02C71.9663 49.98 71.9596 49.9333 71.9863 49.88C72.0663 49.7733 72.1596 49.6667 72.2663 49.56C72.3863 49.44 72.5129 49.3333 72.6463 49.24C72.7929 49.1333 72.9396 49.0467 73.0863 48.98C73.2463 48.9133 73.4063 48.88 73.5663 48.88C73.7796 48.88 73.9263 48.9333 74.0063 49.04C74.0863 49.1333 74.1263 49.2733 74.1263 49.46ZM81.7245 52.74C81.7512 52.7133 81.7845 52.7133 81.8245 52.74C81.8645 52.7667 81.8779 52.8067 81.8645 52.86C81.6245 53.2067 81.3579 53.4867 81.0645 53.7C80.7712 53.9 80.4912 54 80.2245 54C79.9179 54 79.7179 53.7867 79.6245 53.36C79.5445 52.92 79.5912 52.4 79.7645 51.8C79.4045 52.3733 79.0112 52.8667 78.5845 53.28C78.1712 53.68 77.7312 53.92 77.2645 54C76.9445 54 76.6979 53.8533 76.5245 53.56C76.3512 53.2667 76.2645 52.9267 76.2645 52.54C76.2645 52.1 76.3712 51.6667 76.5845 51.24C76.7979 50.8 77.0779 50.4067 77.4245 50.06C77.7845 49.7133 78.1779 49.4333 78.6045 49.22C79.0445 48.9933 79.4845 48.88 79.9245 48.88C80.3912 48.88 80.7579 48.9933 81.0245 49.22C81.1579 49.1267 81.3245 49.0467 81.5245 48.98C81.7379 48.9133 81.9245 48.88 82.0845 48.88C82.1379 48.88 82.1645 48.9133 82.1645 48.98C81.8579 49.3533 81.5912 49.7667 81.3645 50.22C81.1512 50.66 80.9845 51.0867 80.8645 51.5C80.7445 51.9 80.6712 52.26 80.6445 52.58C80.6179 52.9 80.6445 53.12 80.7245 53.24C80.7912 53.32 80.9045 53.3467 81.0645 53.32C81.2245 53.28 81.4445 53.0867 81.7245 52.74ZM77.8845 53.26C78.0445 53.26 78.2379 53.16 78.4645 52.96C78.7045 52.76 78.9512 52.4933 79.2045 52.16C79.4579 51.8267 79.7045 51.4533 79.9445 51.04C80.1979 50.6267 80.4179 50.2067 80.6045 49.78C80.5512 49.6067 80.4245 49.4667 80.2245 49.36C80.0379 49.2533 79.8179 49.2 79.5645 49.2C79.2579 49.2 78.9712 49.28 78.7045 49.44C78.4379 49.5867 78.2045 49.8 78.0045 50.08C77.8179 50.3467 77.6645 50.6733 77.5445 51.06C77.4379 51.4333 77.3845 51.8467 77.3845 52.3C77.3845 52.5933 77.4312 52.8267 77.5245 53C77.6312 53.1733 77.7512 53.26 77.8845 53.26ZM84.5675 53.72C84.3808 53.7867 84.1608 53.8533 83.9075 53.92C83.6675 53.9733 83.4275 54 83.1875 54C83.0275 54 82.9808 53.9133 83.0475 53.74C83.2742 53.18 83.4675 52.5733 83.6275 51.92C83.7875 51.2533 83.9008 50.66 83.9675 50.14C84.0075 49.6733 83.9342 49.44 83.7475 49.44C83.5475 49.44 83.3008 49.5933 83.0075 49.9C82.9408 49.9267 82.8875 49.92 82.8475 49.88C82.8075 49.84 82.8008 49.7933 82.8275 49.74C83.0675 49.5 83.3342 49.3 83.6275 49.14C83.9342 48.9667 84.2408 48.88 84.5475 48.88C84.7475 48.88 84.8808 48.94 84.9475 49.06C85.0142 49.18 85.0475 49.3333 85.0475 49.52C85.0475 49.7733 85.0208 50.0733 84.9675 50.42C84.9142 50.7667 84.8408 51.1333 84.7475 51.52C84.6675 51.8933 84.5742 52.2667 84.4675 52.64C84.3742 53 84.2808 53.3267 84.1875 53.62C84.5608 53.5267 84.9275 53.3533 85.2875 53.1C85.6608 52.8467 85.9942 52.5533 86.2875 52.22C86.5808 51.8867 86.8142 51.5267 86.9875 51.14C87.1742 50.74 87.2675 50.34 87.2675 49.94C87.2675 49.5933 87.1608 49.42 86.9475 49.42C86.8275 49.42 86.7275 49.4467 86.6475 49.5C86.5808 49.54 86.5075 49.62 86.4275 49.74C86.3875 49.7667 86.3542 49.76 86.3275 49.72C86.3008 49.68 86.2942 49.64 86.3075 49.6C86.4008 49.4533 86.5608 49.3 86.7875 49.14C87.0275 48.9667 87.2742 48.88 87.5275 48.88C87.7408 48.88 87.9008 48.96 88.0075 49.12C88.1275 49.2667 88.1875 49.4533 88.1875 49.68C88.1875 50.0667 88.0875 50.46 87.8875 50.86C87.6875 51.2467 87.4208 51.62 87.0875 51.98C86.7542 52.34 86.3675 52.6733 85.9275 52.98C85.4875 53.2733 85.0342 53.52 84.5675 53.72ZM93.0213 49.88C93.0213 50.64 92.0146 51.16 90.0013 51.44C89.9879 51.5733 89.9746 51.7067 89.9613 51.84C89.9613 51.9733 89.9613 52.1133 89.9613 52.26C89.9613 52.6067 90.0413 52.8733 90.2013 53.06C90.3613 53.2467 90.6146 53.34 90.9613 53.34C91.2146 53.34 91.4746 53.2667 91.7413 53.12C92.0079 52.9733 92.2213 52.7867 92.3813 52.56C92.4346 52.5333 92.4746 52.5467 92.5013 52.6C92.5279 52.64 92.5346 52.6867 92.5213 52.74C92.2546 53.0867 91.9146 53.3867 91.5013 53.64C91.1013 53.88 90.6679 54 90.2013 54C89.7346 54 89.3946 53.8867 89.1813 53.66C88.9813 53.42 88.8813 53.0867 88.8813 52.66C88.8813 52.2467 88.9679 51.82 89.1413 51.38C89.3146 50.9267 89.5346 50.5133 89.8013 50.14C90.0813 49.7667 90.3946 49.4667 90.7413 49.24C91.1013 49 91.4613 48.88 91.8213 48.88C92.1813 48.88 92.4679 48.9867 92.6813 49.2C92.9079 49.4 93.0213 49.6267 93.0213 49.88ZM91.2813 49.4C90.9746 49.4 90.7079 49.5467 90.4813 49.84C90.2679 50.12 90.1213 50.56 90.0413 51.16C90.6813 51.0933 91.1546 50.9733 91.4613 50.8C91.7679 50.6133 91.9213 50.3867 91.9213 50.12C91.9213 49.92 91.8613 49.7533 91.7413 49.62C91.6213 49.4733 91.4679 49.4 91.2813 49.4ZM102.187 39.14C102.387 39.14 102.547 39.1933 102.667 39.3C102.801 39.3933 102.887 39.5267 102.927 39.7C102.981 39.86 102.987 40.0467 102.947 40.26C102.921 40.4733 102.847 40.6867 102.727 40.9C102.701 40.9267 102.667 40.9267 102.627 40.9C102.587 40.8733 102.561 40.84 102.547 40.8C102.574 40.64 102.514 40.5067 102.367 40.4C102.234 40.2933 102.021 40.24 101.727 40.24C101.181 40.24 100.627 40.4467 100.067 40.86C99.5207 41.26 98.9873 41.7933 98.4673 42.46C97.9473 43.1267 97.4607 43.8933 97.0073 44.76C96.554 45.6267 96.1607 46.52 95.8273 47.44C95.494 48.36 95.2273 49.2733 95.0273 50.18C94.8407 51.0867 94.7473 51.9133 94.7473 52.66C94.7473 53.06 94.8607 53.26 95.0873 53.26C95.2473 53.26 95.4007 53.1933 95.5473 53.06C95.7073 52.9267 95.8873 52.7267 96.0873 52.46C96.1273 52.4333 96.1607 52.44 96.1873 52.48C96.2273 52.5067 96.2407 52.5467 96.2273 52.6C95.9607 53 95.6473 53.3333 95.2873 53.6C94.9273 53.8667 94.6007 54 94.3073 54C94.054 54 93.874 53.9267 93.7673 53.78C93.674 53.6333 93.6273 53.4467 93.6273 53.22C93.6273 52.5933 93.7607 51.8133 94.0273 50.88C94.294 49.9333 94.6473 48.94 95.0873 47.9C95.5407 46.8467 96.0607 45.8 96.6473 44.76C97.234 43.72 97.8407 42.7867 98.4673 41.96C99.1073 41.12 99.7473 40.44 100.387 39.92C101.027 39.4 101.627 39.14 102.187 39.14ZM103.483 48.98C103.55 49.0067 103.576 49.0467 103.563 49.1C103.55 49.14 103.49 49.1733 103.383 49.2C103.183 49.2 102.95 49.2067 102.683 49.22C102.43 49.2333 102.156 49.2533 101.863 49.28C101.596 49.9333 101.376 50.5733 101.203 51.2C101.03 51.8133 100.943 52.3133 100.943 52.7C100.943 53.1533 101.116 53.38 101.463 53.38C101.81 53.38 102.196 53.08 102.623 52.48C102.663 52.4533 102.696 52.4533 102.723 52.48C102.763 52.5067 102.776 52.5533 102.763 52.62C102.536 52.9933 102.25 53.32 101.903 53.6C101.556 53.8667 101.216 54 100.883 54C100.536 54 100.276 53.92 100.103 53.76C99.943 53.5867 99.863 53.3533 99.863 53.06C99.863 52.6733 99.9563 52.14 100.143 51.46C100.33 50.78 100.57 50.0867 100.863 49.38C100.516 49.42 100.196 49.4733 99.903 49.54C99.8363 49.5267 99.8163 49.4933 99.843 49.44C99.883 49.3867 99.943 49.3333 100.023 49.28C100.116 49.2133 100.223 49.16 100.343 49.12C100.463 49.0667 100.576 49.04 100.683 49.04C100.736 49.04 100.79 49.04 100.843 49.04C100.896 49.04 100.95 49.0333 101.003 49.02C101.176 48.6333 101.356 48.26 101.543 47.9C101.73 47.54 101.916 47.2133 102.103 46.92C102.183 46.8267 102.29 46.7467 102.423 46.68C102.57 46.6 102.71 46.54 102.843 46.5C102.976 46.46 103.083 46.44 103.163 46.44C103.256 46.4267 103.296 46.4467 103.283 46.5C103.056 46.8467 102.83 47.2333 102.603 47.66C102.39 48.0867 102.183 48.5333 101.983 49C102.236 48.9867 102.49 48.98 102.743 48.98C103.01 48.98 103.256 48.98 103.483 48.98ZM106.353 48.88C106.82 48.88 107.167 49.02 107.393 49.3C107.62 49.58 107.733 49.9067 107.733 50.28C107.733 50.8 107.627 51.2867 107.413 51.74C107.213 52.18 106.96 52.5733 106.653 52.92C106.36 53.2533 106.04 53.52 105.693 53.72C105.347 53.9067 105.033 54 104.753 54C104.3 54 103.953 53.8667 103.713 53.6C103.487 53.32 103.373 52.9667 103.373 52.54C103.373 52.1533 103.453 51.7467 103.613 51.32C103.787 50.8933 104.007 50.5 104.273 50.14C104.553 49.78 104.873 49.48 105.233 49.24C105.593 49 105.967 48.88 106.353 48.88ZM105.253 53.38C105.667 53.38 106.013 53.1667 106.293 52.74C106.587 52.3 106.733 51.7 106.733 50.94C106.733 50.54 106.653 50.2067 106.493 49.94C106.333 49.6733 106.1 49.54 105.793 49.54C105.367 49.54 105.02 49.7467 104.753 50.16C104.487 50.5733 104.353 51.18 104.353 51.98C104.353 52.4467 104.433 52.8 104.593 53.04C104.767 53.2667 104.987 53.38 105.253 53.38ZM112.75 48.58C112.79 48.5533 112.83 48.56 112.87 48.6C112.91 48.6267 112.923 48.66 112.91 48.7C112.803 48.8467 112.683 48.98 112.55 49.1C112.416 49.22 112.25 49.2933 112.05 49.32C112.236 49.5333 112.33 49.7933 112.33 50.1C112.33 50.4333 112.276 50.7267 112.17 50.98C112.076 51.22 111.963 51.4467 111.83 51.66C111.696 51.8733 111.563 52.0733 111.43 52.26C111.296 52.4333 111.19 52.6133 111.11 52.8C111.043 52.9867 111.016 53.1933 111.03 53.42C111.056 53.6333 111.163 53.88 111.35 54.16C111.643 54.6133 111.856 55.0133 111.99 55.36C112.136 55.7067 112.21 56.08 112.21 56.48C112.21 56.8133 112.13 57.12 111.97 57.4C111.823 57.6933 111.61 57.9467 111.33 58.16C111.05 58.3867 110.703 58.56 110.29 58.68C109.89 58.8133 109.443 58.88 108.95 58.88C107.936 58.88 107.136 58.6933 106.55 58.32C105.963 57.9467 105.67 57.4533 105.67 56.84C105.67 56.3733 105.836 55.9533 106.17 55.58C106.49 55.22 106.97 54.9533 107.61 54.78C107.676 54.78 107.723 54.8 107.75 54.84C107.763 54.8933 107.756 54.94 107.73 54.98C107.436 55.0867 107.203 55.2467 107.03 55.46C106.856 55.6733 106.77 55.9533 106.77 56.3C106.77 56.98 107.003 57.5267 107.47 57.94C107.936 58.3667 108.55 58.58 109.31 58.58C109.95 58.58 110.423 58.4133 110.73 58.08C111.036 57.7467 111.19 57.3267 111.19 56.82C111.19 56.5133 111.143 56.24 111.05 56C110.956 55.76 110.823 55.4867 110.65 55.18C110.396 54.7533 110.283 54.34 110.31 53.94C110.336 53.54 110.47 53.1333 110.71 52.72C110.723 52.6933 110.73 52.68 110.73 52.68C110.743 52.6667 110.756 52.6467 110.77 52.62C110.623 52.7667 110.463 52.8867 110.29 52.98C110.13 53.0733 109.97 53.12 109.81 53.12C109.423 53.12 109.123 53.0067 108.91 52.78C108.71 52.5533 108.61 52.22 108.61 51.78C108.61 51.4467 108.683 51.1067 108.83 50.76C108.976 50.4133 109.163 50.1 109.39 49.82C109.63 49.54 109.896 49.3133 110.19 49.14C110.483 48.9667 110.783 48.88 111.09 48.88C111.543 48.88 111.896 48.8667 112.15 48.84C112.403 48.8 112.603 48.7133 112.75 48.58ZM111.15 51.92C111.23 51.7333 111.296 51.54 111.35 51.34C111.403 51.14 111.43 50.9333 111.43 50.72C111.43 50.3467 111.363 50.0467 111.23 49.82C111.11 49.5933 110.91 49.48 110.63 49.48C110.283 49.48 110.003 49.6333 109.79 49.94C109.59 50.2333 109.49 50.7 109.49 51.34C109.49 52.1133 109.743 52.5 110.25 52.5C110.396 52.5 110.556 52.4467 110.73 52.34C110.903 52.22 111.043 52.08 111.15 51.92ZM117.435 49.88C117.435 50.64 116.429 51.16 114.415 51.44C114.402 51.5733 114.389 51.7067 114.375 51.84C114.375 51.9733 114.375 52.1133 114.375 52.26C114.375 52.6067 114.455 52.8733 114.615 53.06C114.775 53.2467 115.029 53.34 115.375 53.34C115.629 53.34 115.889 53.2667 116.155 53.12C116.422 52.9733 116.635 52.7867 116.795 52.56C116.849 52.5333 116.889 52.5467 116.915 52.6C116.942 52.64 116.949 52.6867 116.935 52.74C116.669 53.0867 116.329 53.3867 115.915 53.64C115.515 53.88 115.082 54 114.615 54C114.149 54 113.809 53.8867 113.595 53.66C113.395 53.42 113.295 53.0867 113.295 52.66C113.295 52.2467 113.382 51.82 113.555 51.38C113.729 50.9267 113.949 50.5133 114.215 50.14C114.495 49.7667 114.809 49.4667 115.155 49.24C115.515 49 115.875 48.88 116.235 48.88C116.595 48.88 116.882 48.9867 117.095 49.2C117.322 49.4 117.435 49.6267 117.435 49.88ZM115.695 49.4C115.389 49.4 115.122 49.5467 114.895 49.84C114.682 50.12 114.535 50.56 114.455 51.16C115.095 51.0933 115.569 50.9733 115.875 50.8C116.182 50.6133 116.335 50.3867 116.335 50.12C116.335 49.92 116.275 49.7533 116.155 49.62C116.035 49.4733 115.882 49.4 115.695 49.4ZM121.881 48.98C121.948 49.0067 121.975 49.0467 121.961 49.1C121.948 49.14 121.888 49.1733 121.781 49.2C121.581 49.2 121.348 49.2067 121.081 49.22C120.828 49.2333 120.555 49.2533 120.261 49.28C119.995 49.9333 119.775 50.5733 119.601 51.2C119.428 51.8133 119.341 52.3133 119.341 52.7C119.341 53.1533 119.515 53.38 119.861 53.38C120.208 53.38 120.595 53.08 121.021 52.48C121.061 52.4533 121.095 52.4533 121.121 52.48C121.161 52.5067 121.175 52.5533 121.161 52.62C120.935 52.9933 120.648 53.32 120.301 53.6C119.955 53.8667 119.615 54 119.281 54C118.935 54 118.675 53.92 118.501 53.76C118.341 53.5867 118.261 53.3533 118.261 53.06C118.261 52.6733 118.355 52.14 118.541 51.46C118.728 50.78 118.968 50.0867 119.261 49.38C118.915 49.42 118.595 49.4733 118.301 49.54C118.235 49.5267 118.215 49.4933 118.241 49.44C118.281 49.3867 118.341 49.3333 118.421 49.28C118.515 49.2133 118.621 49.16 118.741 49.12C118.861 49.0667 118.975 49.04 119.081 49.04C119.135 49.04 119.188 49.04 119.241 49.04C119.295 49.04 119.348 49.0333 119.401 49.02C119.575 48.6333 119.755 48.26 119.941 47.9C120.128 47.54 120.315 47.2133 120.501 46.92C120.581 46.8267 120.688 46.7467 120.821 46.68C120.968 46.6 121.108 46.54 121.241 46.5C121.375 46.46 121.481 46.44 121.561 46.44C121.655 46.4267 121.695 46.4467 121.681 46.5C121.455 46.8467 121.228 47.2333 121.001 47.66C120.788 48.0867 120.581 48.5333 120.381 49C120.635 48.9867 120.888 48.98 121.141 48.98C121.408 48.98 121.655 48.98 121.881 48.98ZM121.652 53.82C122.252 51.5267 122.939 49.46 123.712 47.62C124.499 45.78 125.325 44.2133 126.192 42.92C127.059 41.6267 127.932 40.6333 128.812 39.94C129.705 39.2333 130.552 38.88 131.352 38.88C131.685 38.88 131.945 38.96 132.132 39.12C132.332 39.2667 132.465 39.4533 132.532 39.68C132.612 39.8933 132.625 40.1267 132.572 40.38C132.519 40.6333 132.419 40.86 132.272 41.06C132.232 41.1 132.192 41.1133 132.152 41.1C132.112 41.0867 132.092 41.0533 132.092 41C132.159 40.7333 132.085 40.48 131.872 40.24C131.659 40 131.319 39.88 130.852 39.88C130.132 39.88 129.445 40.0733 128.792 40.46C128.152 40.8467 127.525 41.4933 126.912 42.4C126.299 43.2933 125.699 44.4867 125.112 45.98C124.525 47.46 123.925 49.3067 123.312 51.52C123.512 51.16 123.739 50.82 123.992 50.5C124.259 50.18 124.545 49.9 124.852 49.66C125.159 49.42 125.485 49.2333 125.832 49.1C126.179 48.9533 126.539 48.88 126.912 48.88C127.072 48.88 127.185 48.92 127.252 49C127.332 49.08 127.372 49.1733 127.372 49.28C127.372 49.4533 127.312 49.6467 127.192 49.86C126.912 50.3533 126.685 50.86 126.512 51.38C126.339 51.9 126.252 52.3733 126.252 52.8C126.252 52.9867 126.272 53.14 126.312 53.26C126.352 53.38 126.425 53.44 126.532 53.44C126.665 53.44 126.812 53.3733 126.972 53.24C127.132 53.0933 127.265 52.9333 127.372 52.76C127.412 52.7333 127.452 52.74 127.492 52.78C127.532 52.8067 127.545 52.84 127.532 52.88C127.359 53.1733 127.112 53.4333 126.792 53.66C126.485 53.8867 126.205 54 125.952 54C125.725 54 125.539 53.94 125.392 53.82C125.245 53.6867 125.172 53.4667 125.172 53.16C125.172 52.92 125.192 52.6667 125.232 52.4C125.285 52.12 125.345 51.8467 125.412 51.58C125.492 51.3133 125.579 51.0533 125.672 50.8C125.779 50.5333 125.892 50.2933 126.012 50.08C126.079 49.92 126.112 49.8067 126.112 49.74C126.112 49.62 126.045 49.56 125.912 49.56C125.659 49.56 125.385 49.66 125.092 49.86C124.799 50.0467 124.512 50.32 124.232 50.68C123.952 51.0267 123.679 51.4467 123.412 51.94C123.159 52.4333 122.939 52.98 122.752 53.58C122.725 53.6733 122.619 53.7667 122.432 53.86C122.245 53.9533 122.039 54 121.812 54C121.679 54 121.625 53.94 121.652 53.82ZM132.396 49.88C132.396 50.64 131.39 51.16 129.376 51.44C129.363 51.5733 129.35 51.7067 129.336 51.84C129.336 51.9733 129.336 52.1133 129.336 52.26C129.336 52.6067 129.416 52.8733 129.576 53.06C129.736 53.2467 129.99 53.34 130.336 53.34C130.59 53.34 130.85 53.2667 131.116 53.12C131.383 52.9733 131.596 52.7867 131.756 52.56C131.81 52.5333 131.85 52.5467 131.876 52.6C131.903 52.64 131.91 52.6867 131.896 52.74C131.63 53.0867 131.29 53.3867 130.876 53.64C130.476 53.88 130.043 54 129.576 54C129.11 54 128.77 53.8867 128.556 53.66C128.356 53.42 128.256 53.0867 128.256 52.66C128.256 52.2467 128.343 51.82 128.516 51.38C128.69 50.9267 128.91 50.5133 129.176 50.14C129.456 49.7667 129.77 49.4667 130.116 49.24C130.476 49 130.836 48.88 131.196 48.88C131.556 48.88 131.843 48.9867 132.056 49.2C132.283 49.4 132.396 49.6267 132.396 49.88ZM130.656 49.4C130.35 49.4 130.083 49.5467 129.856 49.84C129.643 50.12 129.496 50.56 129.416 51.16C130.056 51.0933 130.53 50.9733 130.836 50.8C131.143 50.6133 131.296 50.3867 131.296 50.12C131.296 49.92 131.236 49.7533 131.116 49.62C130.996 49.4733 130.843 49.4 130.656 49.4ZM135.122 49.46C135.122 49.66 135.102 49.8867 135.062 50.14C135.022 50.3933 134.969 50.6533 134.902 50.92C135.169 50.28 135.462 49.78 135.782 49.42C136.102 49.06 136.449 48.88 136.822 48.88C137.022 48.88 137.176 48.9267 137.282 49.02C137.389 49.1133 137.442 49.2333 137.442 49.38C137.442 49.5133 137.389 49.6867 137.282 49.9C137.189 50.1133 137.109 50.26 137.042 50.34C137.016 50.3533 136.989 50.3533 136.962 50.34C136.936 50.3133 136.922 50.2867 136.922 50.26C136.922 50.1667 136.882 50.0867 136.802 50.02C136.736 49.9533 136.629 49.92 136.482 49.92C136.016 49.92 135.589 50.24 135.202 50.88C134.829 51.5067 134.482 52.4133 134.162 53.6C134.149 53.6667 134.102 53.7267 134.022 53.78C133.942 53.82 133.849 53.86 133.742 53.9C133.649 53.9267 133.549 53.9533 133.442 53.98C133.336 53.9933 133.242 54 133.162 54C133.016 54 132.976 53.92 133.042 53.76C133.162 53.48 133.276 53.18 133.382 52.86C133.502 52.5267 133.609 52.1933 133.702 51.86C133.796 51.5267 133.876 51.2067 133.942 50.9C134.009 50.58 134.062 50.2867 134.102 50.02C134.129 49.82 134.136 49.6667 134.122 49.56C134.122 49.4533 134.069 49.4 133.962 49.4C133.829 49.4 133.689 49.46 133.542 49.58C133.409 49.6867 133.282 49.8267 133.162 50C133.109 50.04 133.056 50.0467 133.002 50.02C132.962 49.98 132.956 49.9333 132.982 49.88C133.062 49.7733 133.156 49.6667 133.262 49.56C133.382 49.44 133.509 49.3333 133.642 49.24C133.789 49.1333 133.936 49.0467 134.082 48.98C134.242 48.9133 134.402 48.88 134.562 48.88C134.776 48.88 134.922 48.9333 135.002 49.04C135.082 49.1333 135.122 49.2733 135.122 49.46Z" fill="black"/>
<path d="M120.505 26.245C118.219 26.245 116.119 25.7083 114.205 24.635C112.292 23.5617 110.775 22.08 109.655 20.19C108.535 18.2767 107.975 16.1183 107.975 13.715C107.975 11.335 108.535 9.2 109.655 7.31C110.775 5.39666 112.292 3.90333 114.205 2.83C116.119 1.75667 118.219 1.22 120.505 1.22C122.815 1.22 124.915 1.75667 126.805 2.83C128.719 3.90333 130.224 5.39666 131.32 7.31C132.44 9.2 133 11.335 133 13.715C133 16.1183 132.44 18.2767 131.32 20.19C130.224 22.08 128.719 23.5617 126.805 24.635C124.892 25.7083 122.792 26.245 120.505 26.245ZM120.505 21.87C121.975 21.87 123.27 21.5433 124.39 20.89C125.51 20.2133 126.385 19.2567 127.015 18.02C127.645 16.7833 127.96 15.3483 127.96 13.715C127.96 12.0817 127.645 10.6583 127.015 9.445C126.385 8.20833 125.51 7.26333 124.39 6.61C123.27 5.95667 121.975 5.63 120.505 5.63C119.035 5.63 117.729 5.95667 116.585 6.61C115.465 7.26333 114.59 8.20833 113.96 9.445C113.33 10.6583 113.015 12.0817 113.015 13.715C113.015 15.3483 113.33 16.7833 113.96 18.02C114.59 19.2567 115.465 20.2133 116.585 20.89C117.729 21.5433 119.035 21.87 120.505 21.87Z" fill="#EE0000"/>
</svg>
