<svg width="43" height="54" viewBox="0 0 43 54" fill="none" xmlns="http://www.w3.org/2000/svg">
<path d="M10.4467 23.755C10.1689 23.2029 9.89996 22.6438 9.64162 22.0828C9.13556 20.9858 8.66135 19.8622 8.44902 18.6731C7.76071 14.837 9.74425 10.6541 12.5913 8.19454C16.6433 4.69636 22.3833 3.37459 26.8476 0.270996C26.6002 1.79659 25.7848 3.17209 24.5651 4.12129C26.6548 2.5111 32.8814 5.16349 34.8278 6.15791C38.055 7.78279 40.7976 10.2287 42.7796 13.2498C40.6784 12.3956 38.3911 12.1029 36.1425 12.4005C37.8907 14.0938 39.7097 15.9004 40.3714 18.2396C37.2342 15.9783 32.2249 17.0665 30.314 20.4373C29.0877 22.596 29.1054 25.2254 28.3676 27.5982C27.589 30.1108 25.4887 31.7068 23.0186 32.3757C21.1571 32.8853 17.4944 33.1153 15.8081 32.0218C15.2967 31.6909 14.9234 31.1848 14.5801 30.6859C13.0387 28.4772 11.6573 26.161 10.4467 23.755Z" fill="#00214E"/>
<path d="M15.4065 24.4573C15.4065 26.1186 14.0597 27.4653 12.3984 27.4653C10.7371 27.4653 9.39038 26.1186 9.39038 24.4573C9.39038 22.796 10.7371 21.4492 12.3984 21.4492C14.0597 21.4492 15.4065 22.796 15.4065 24.4573Z" fill="#FFBAB0"/>
<path d="M16.2661 24.2803C16.2661 25.8439 14.9986 27.1114 13.435 27.1114C11.8714 27.1114 10.6039 25.8439 10.6039 24.2803C10.6039 22.7167 11.8714 21.4492 13.435 21.4492C14.9986 21.4492 16.2661 22.7167 16.2661 24.2803Z" fill="#ECAE9E"/>
<path d="M40.9908 46.2623C29.1625 55.3699 12.6641 55.297 0.916626 46.0854L9.52671 42.0493C9.93675 41.8566 10.3303 41.6305 10.7034 41.3734C10.8166 41.2955 10.9299 41.2141 11.0378 41.1292C11.9749 40.4122 12.7462 39.5015 13.2991 38.4591C14.0069 37.1232 14.2405 35.6475 14.2511 34.1435C14.2511 33.6463 14.2405 33.1473 14.2263 32.6483C14.2122 32.1493 14.1909 31.6202 14.1856 31.1053C14.1786 30.545 14.1727 29.9841 14.1679 29.4226L14.5218 29.5996L15.4419 30.0755L15.8684 30.1481L20.8016 30.9868L26.3081 31.9246L26.4744 37.5868L26.5434 39.9384L26.5558 40.3365V40.3949L28.6968 41.2654L40.9908 46.2623Z" fill="#FFBAB0"/>
<path d="M26.5399 39.9259L26.2674 39.9542C23.6045 40.1876 20.9734 39.2399 19.0711 37.3619L14.2264 31.4626C14.2104 30.9495 14.191 31.6095 14.1857 31.0946C14.1786 30.5343 14.1727 29.9734 14.168 29.4119L14.5219 29.5888L15.442 30.0648L15.8684 30.1373L20.8016 30.976L26.3081 31.9138L26.4744 37.576L26.5399 39.9259Z" fill="#ECAE9E"/>
<path d="M13.9308 18.8465C13.379 19.3345 13.0242 20.0071 12.9329 20.7381C12.563 24.1938 13.8424 28.2723 14.198 31.7333L20.6423 36.486C22.7837 38.0857 25.5196 38.664 28.1252 38.0679C29.1639 37.822 29.8221 37.6627 30.291 36.8293C31.197 35.2368 33.4212 29.7887 33.5663 25.9455C33.607 24.8538 33.5804 23.1905 32.908 22.2615C32.5807 21.8103 32.4126 21.7997 32.5311 21.1627C32.6532 20.4974 32.8284 19.8392 32.9753 19.1792C33.1886 18.2245 33.2483 17.2419 33.1522 16.2685C33.0549 15.3837 33.0584 14.5981 32.9647 13.6975C32.9186 13.2604 32.724 11.3477 32.724 11.3477C31.6004 13.0392 29.5726 13.9275 27.697 14.5114C25.1455 15.3041 22.4896 15.6916 19.9027 16.3569C18.1881 16.8046 15.4154 17.4416 13.9308 18.8465Z" fill="#FFBAB0"/>
<path d="M21.5765 21.5132C22.6559 21.522 22.6559 23.1729 21.5765 23.1818H21.5287C20.4476 23.1729 20.4476 21.522 21.5287 21.5132H21.5765Z" fill="#00214E"/>
<path d="M30.8996 21.0088C31.9029 21.0088 31.9029 22.5482 30.8996 22.557H30.8554C29.8539 22.5482 29.8539 21.0159 30.8554 21.0088H30.8996Z" fill="#00214E"/>
<path fill-rule="evenodd" clip-rule="evenodd" d="M25.6369 31.2716C24.35 31.1132 23.1643 30.4935 22.2996 29.5274L22.4354 29.4058C23.2707 30.339 24.4161 30.9377 25.6592 31.0907L25.6369 31.2716Z" fill="#00214E"/>
<path fill-rule="evenodd" clip-rule="evenodd" d="M24.0279 19.4817C22.384 19.2372 20.7098 19.2849 19.0824 19.6223L19.0454 19.4438C20.6938 19.102 22.3896 19.0537 24.0548 19.3013L24.0279 19.4817Z" fill="#00214E"/>
<path fill-rule="evenodd" clip-rule="evenodd" d="M32.5921 19.4203C31.5676 19.3293 30.5351 19.4009 29.533 19.6324L29.4919 19.4548C30.5128 19.2189 31.5646 19.146 32.6082 19.2387L32.5921 19.4203Z" fill="#00214E"/>
<path d="M40.9908 46.262C29.1625 55.3696 12.6641 55.2967 0.916626 46.0851L9.52671 42.049C9.93675 41.8563 10.3303 41.6302 10.7034 41.3731C10.8166 41.2952 10.9299 41.2138 11.0378 41.1289C15.2048 44.0945 20.8918 45.9648 25.8108 43.7512C26.9822 43.2204 28.058 42.364 28.695 41.2634L40.9908 46.262Z" fill="#373232"/>
<path fill-rule="evenodd" clip-rule="evenodd" d="M24.1655 27.2417C24.0582 26.9173 24.2035 26.5631 24.5076 26.4075L24.5907 26.5698C24.3666 26.6845 24.2596 26.9454 24.3386 27.1844C24.4177 27.4234 24.6592 27.5691 24.9075 27.5276L24.9375 27.7074C24.6005 27.7638 24.2728 27.5661 24.1655 27.2417Z" fill="#00214E"/>
<path fill-rule="evenodd" clip-rule="evenodd" d="M27.919 24.3667C27.6836 23.3696 27.4489 22.3756 27.1876 21.3734L27.3641 21.3274C27.6256 22.3304 27.8614 23.3293 28.0974 24.3289C28.2588 25.0121 28.4201 25.6956 28.5899 26.381C28.642 26.547 28.6611 26.7215 28.646 26.8949L28.6457 26.898L28.6452 26.901C28.6013 27.1817 28.4123 27.3732 28.1847 27.5047C27.958 27.6357 27.6819 27.7142 27.4385 27.767L27.3998 27.5888C27.6378 27.5372 27.8916 27.4635 28.0935 27.3468C28.2935 27.2312 28.4315 27.0803 28.4646 26.8759C28.4772 26.7265 28.4604 26.5761 28.4151 26.4332L28.4143 26.4304L28.4136 26.4276C28.2425 25.7367 28.0806 25.051 27.919 24.3667Z" fill="#00214E"/>
</svg>
